<svg xmlns="http://www.w3.org/2000/svg" viewBox="0 0 600 500"><defs><style>.cls-1{fill:#40484f;}.cls-2{fill:none;stroke:#41484f;stroke-miterlimit:10;stroke-width:3px;}</style></defs><title>cities-icon</title><path class="cls-1" d="M526.24 228v-6h-8.93v-11.9h-119v-107.1h-.59a14.54 14.54 0 0 0-11.31-11.31v-9.5h-6v9.52a14.53 14.53 0 0 0-11.31 11.29h-.6v47.62h-136.9v-47.62h-.6a14.54 14.54 0 0 0-11.31-11.31v-9.5h-5.95v9.52a14.53 14.53 0 0 0-11.31 11.29h-.6v107.17h-119v11.9h-8.97v6h8.93v29.77h-8.93v5.95h8.93v148.76h-8.93v5.95h452.38v-5.95h-8.93v-148.81h8.93v-5.95h-8.93v-29.79zm-14.88-11.9v5.95h-101.19v-5.95zm-107.15 0v41.67h-41.66v-41.65zm65.48 65.48v-17.84h17.86v17.86zm-5.95 0h-17.86v-17.84h17.86zm-23.81 0h-17.86v-17.84h17.86zm-23.81 0h-5.95v-17.84h5.95zm-11.91 71.42h-41.66v-89.26h41.66zm-41.66 6h41.66v17.85h-41.66zm-119-148.81h-11.95v-41.69h136.9v41.67zm5.95 6v20.81h6v-20.88h17.86v20.88h5.95v-20.88h17.86v20.88h5.83v-20.88h17.86v20.88h5.95v-20.88h17.86v20.88h5.95v-20.88h6v41.67h-113.12v-41.67zm125-6v-41.69h17.86v41.67zm17.86-47.62h-17.91v-53.57h17.86zm-8.93-65.48a8.72 8.72 0 0 1 8.33 6h-16.71a8.72 8.72 0 0 1 8.33-6zm-14.93 59.51v6h-136.9v-6zm-142.86 6h-17.85v-53.6h17.85zm-8.93-65.48a8.73 8.73 0 0 1 8.34 6h-16.67a8.72 8.72 0 0 1 8.33-6.05zm-8.92 71.43h17.85v41.67h-17.85zm-6 47.62h35.72v41.67h-41.63v-41.72zm-6 142.86h41.67v17.85h-41.58zm41.67-6h-41.58v-89.29h41.67zm-119-89.28v17.85h-17.82v-17.86zm6 0h17.86v17.85h-17.87zm23.81 0h17.86v17.85h-17.87zm23.81 0h17.86v17.85h-17.87zm-83.34-47.63h101.19v5.95h-101.19zm0 11.9h101.19v29.77h-101.19zm6 35.72v17.86h-6v-17.86zm29.76 148.81v-38.69a14.88 14.88 0 1 1 29.76 0v38.69zm35.72 0v-38.69a20.84 20.84 0 1 0-41.67 0v38.69h-6v-65.48h53.57v65.48zm-47.62-74.41a26.79 26.79 0 0 1 53.57 0l-.36 3h-52.91zm59.52 74.41v-71.43h-.24l.24-3a32.74 32.74 0 1 0-65.47 0l.23 3h-.23v71.43h-17.91v-125h101.19v65.45h-8.93v6h8.93v53.57zm23.81 0v-29.76h41.67v29.76zm136.91 0h-65.53v-97.62c0-16.91 14.64-30.6 32.74-30.6s32.74 13.69 32.74 30.6zm5.95 0v-97.62c0-20.24-17.38-36.55-38.69-36.55s-38.69 16.43-38.69 36.55v97.62h-17.91v-148.81h113.1v148.81zm23.81 0v-29.76h41.66v29.76zm83.33 0v-38.69a14.88 14.88 0 0 1 29.76 0v38.69zm35.72 0v-38.69a20.84 20.84 0 1 0-41.67 0v38.69h-5.98v-65.48h53.57v65.48zm-47.65-74.41a26.79 26.79 0 0 1 53.57 0l-.36 3h-53zm59.52 74.41v-71.43h-.24l.24-3a32.74 32.74 0 0 0-65.48 0l.24 3h-.28v71.43h-17.83v-53.55h8.93v-6h-8.93v-65.45h101.19v125zm17.84-130.95h-17.86v-17.86h17.86zm0-23.81h-101.19v-29.79h101.19z"/><path class="cls-2" d="M82.86 415.31h-7.52v7.95l449.31-1.63.02-7.41h-7.14M433.98 338.14h53.57M111.24 336.25l56.72.45"/></svg>