<svg xmlns="http://www.w3.org/2000/svg" viewBox="0 0 600 500"><defs><style>.cls-1{fill:none;stroke:#41484f;stroke-miterlimit:10;stroke-width:3px;}</style></defs><title>cities-icon</title><path class="cls-1" d="M234.57 433.86h140.58v30.78h-140.58zM262.39 318.3a102.37 102.37 0 0 0-5.95 13c-.2.52-.4 1.05-.6 1.6-5.82 15.85-11.61 41.8 1.08 63.69 19.84 34.2 17.1 35.91 17.1 35.91h52.33s46.51-59.82 13.65-110.78c0 0-3.53.61-4.74 5.46 0 0-2.43-6.47-7.68-7.08 0 0-7.68 7.08-5.26 15 0 0-3.43-10.71-19.4-18.39 0 0-14.35 4.64-18.39 13.74 0 0-4-9.9-9.5-11.72a26.51 26.51 0 0 0-10.71 11.52zM256.82 332.53s-.46 41.93 13.76 62.18c0 0 26.76 14.7 29.17 29.4 0 0 2.65-16.87 30.36-27.23 0 0 3.62-1.93 4.1-4.34 0 0 8.68 7 5.06 16.15M336.91 393.19s-8.33-21.13 10.66-55.55"/><path class="cls-1" d="M338.3 133s62.41-32.06 137.91 4.82c0 0 4 6.53-4.67 5.67 0 0 .49 5-8.25 2.58 0 0 1.36 5.3-10 4.44 0 0 0 7.26-11.94 4.3 0 0 4.82 7.22-7.6 6.34 0 0 1.07 6-8.51 4.43 0 0 .18 7.45-9.23 4.61 0 0 .71 7.28-9 4.62 0 0-1.24 6.74-9.05 3.9 0 0-1.24 6.38-10.82 4.26 0 0-3 7.27-13.84.71 0 0-4.79 9.22-20.75-3.91 0 0-2.66 5.32-10.11-1.06a72.15 72.15 0 0 1-2.13-15.26l.94-9.57-1.32-8.37 1.2-3.1-2.51-6.82zM472 143.54s-51.37-23.75-68.81-23.5M464.09 146.32s-22.25-8.3-53.76-6.84M453.32 150.51s-23.26-18.2-60.56-8.15M441.38 155.5s-29.46-20.66-61.38-10.34l-39.46 14.84M433.78 161.15s-16.68-15.88-52.92-16.15M425.27 165.58s-22.77-18.3-54.15-17.75M416 170.19s-10.35-14.6-53.94-19.1M407 174.81s-19.93-18.31-54.7-20.35M398 178.71s-24.32-20-53.49-20.65M387.13 183s-13-17.54-46.74-21M373.29 183.68s-8.77-12.41-32.82-16.58M352.54 179.77s-1.53-5.72-11.47-7.31M435.34 140.18s-28.5-19.34-43.85-19.87M418.17 139s-14.26-17.18-38.79-17.66M405.74 139.7s-15.93-17.12-36.6-16.54M356.76 126.08a55.57 55.57 0 0 1 38.24 15.43M347.71 128.84s20.18-2.56 38.82 14.48M341.17 131.49s29.11 4.66 38.82 13.67M339.64 138.45s24.49 2.78 30.61 9.74M360.75 151.35c-12.6-6-20.5-4.16-20.5-4.16M341.22 153s8.45-.55 12.61 1.53"/><path class="cls-1" d="M279.86 137.35s-68.18-42.11-164-.8c0 0-2.58 6.91 6.94 5.11 0 0 1.28 7.46 9.77 3.35 0 0 2.19 8.49 10.29 3.21 0 0 2.83 8.23 12.35 4.12 0 0-1.8 8 9.77 5.14 0 0 .65 6.82 9.26 4 0 0 .9 7.59 10.55 4.76 0 0 2.06 7.85 10.93 4.37 0 0 .9 7.59 10.42 3.86 0 0 2.44 8.62 11.32 3.86 0 0 4 8.87 14.53.9 0 0 8.11 9.26 22.12-4.24 0 0 2.71 6.43 20.33-5.41l9.36-1.58-1.24-11.89s-.76-12.37-2.7-18.76zM122.77 141.66s27.08-8.76 50.68-7.25l108.19 26.06M132.54 145s33.26-10.75 53.37-8.82M142.82 148.05s39.14-11.57 56.7-8.94M155.18 152.34s30.24-13.71 53.83-11.1M165 157.48s31-15.59 55.92-13.43M174.21 161.47s25.45-15.68 58.69-14.21M184.76 166.23s32.88-20.41 58.18-16.53M195.69 170.6s22.38-19.23 58.71-17.83M206.11 174.46s31.43-19.53 57.19-19.27M217.43 178.32s20.3-15.88 54-20.59M232 179.22a98.41 98.41 0 0 1 47.5-19.58M254.27 174.65s15-13.19 26.59-14M147.13 135.57s39.36-18 50.14-16.56M175.8 134.59s29.52-17.28 42.86-15.09M191.27 136.84s19.38-15.41 44-14.93M203.63 139.53s19-15.47 43-15.09M216 142.5s13.42-16.12 38.44-15.48M227 145.73s10.88-17.36 38.7-15.16M240 148.69s8.25-16.64 31.47-15.61M248.91 151.27s6.19-14.7 27.6-15.48M258.06 153.6s3.36-9.94 22.45-13.68M266.32 155.79a19.58 19.58 0 0 1 15.09-8.39M273.67 157.59s5-5.16 8.52-4.51M292.72 194.53c9.1.56 20.5-.24 27.25-6.38l1.76-1.51s3.76 4 2.38 8c0 0 3.77 4.52 2.51 6.65 0 0 3.52 1.88 3.14 4.89l-.5 1.63 1 5.65 1.13 4.27-.5 5 .31 7.37-.7 5.35-.75 7.5-1.37 2 .25 7.62-.62 1.56-.35 4.18-1.51 1.51v4.07l-1.39.7s.23 4.18-.7 5.8l-1 1.51s.93 3.25-.47 4.3l-1.16.58a3.1 3.1 0 0 1 .12 2.55s1 2.44-2 3.6a11.76 11.76 0 0 0-8.59 1.51s-5.92 6.16-9.76 7.2c0 0-6.73.93-9.4 2 0 0-7.9.46-9.41 4.3l-.61.6M283.25 326.12l-1.46-10.92-1.21-11.89s.37-2.31.73-5.1l-.12-15.41-.37-1.58-1.1-9.75-2-3.13.18-5.34-3.31-7-.19-4.6-1.84-9.56 1.29-7.36-1.65-12s-1.06-10.57 4.62-25.27"/><path class="cls-1" d="M319.64 283.9l1.14 13.33s.56 13.47-1.28 15.88c0 0-1.56 9.21-1.28 12.19l-.14 2.13s-6.38-8.51-12.62-11.2l-1.27-1.7s.71-22.4 1.42-24.81c0 0 10.91-12.2 14.03-5.82zM297 292.13s-1.42 3.54-.71 6.52l.14 19.7M272.49 217.68a19.67 19.67 0 0 1 15.81-10.81s22.43-1.45 24.85-6.29c0 0 11.45-1.65 11-5.91M275 255.78s23.82-26.38 31.42-26.38c0 0 16.82-17.05 23.42-9.51l1.33 1.62M273.87 245.46s11.27-16.9 22.92-21.36l7-3.5 6.22-4.47s6-9.9 10.68-11.84l5.94-3M329.76 206.21s-19 16.72-27.92 18.86c0 0-10.29 5.05-14 16.12l-1.73 3.23M281.49 284.33s.2-4.52 9.64-6.49 12.6-6.89 14-13.38l11.22-10.62a21.73 21.73 0 0 1 12.31-1.23M331.2 230.15s-4.65-9-13.11-1.89c0 0-11 12.4-15.15 17.51 0 0-16.33 21.44-23.22 22.82l-2-.25M330.41 233.33s-6.59-.51-12.85 7.1l-12.34 12-8.46 8.12-11.16 9s-3.81 1.88-5.88 2M328.38 245s-16.4 3.72-22.66 10.66l-12.51 14.88s-9.47 7.44-11.33 8l-1.35.5M324.76 264.63s-7.71.15-16.16 9.79c0 0-8.8 9.64-14.38 11.5 0 0-8.79 1-11.83 6.08l-1 2.37M273.09 230.45s16.06-16.4 28.41-20.46c0 0 10.65-4.73 11.66-8v-1.46M304 229.61s-8.32 22.09-20.12 28.55l-6.76 3.24M334.4 193.08s.2 8.23 2.57 12.18c0 0 4.21 6.25 3.95 8.82l-.07 2s-1.38 1.12-.46 1.91c0 0-1.12.79.27 1.78a1.43 1.43 0 0 0 .26 2.57s-1.19 2 .79 2.23a9 9 0 0 0-.4 6.72s-.46 3-1.38 3.62-.92.85.13 1.18c0 0 1.7.75 2.51-1.4 0 0 2.23-3.17 2.19-4.37s1.69 6.74-.41 11.21l1.79 1.74a8 8 0 0 0 3.57-3.84c1.08-2.64.81-8.49.59-10.19l-.81-5.13a2.26 2.26 0 0 0 .42-2.68 1.76 1.76 0 0 0-.32-2.54s.89-2.6-1.14-3l-.76-.57-.76-3.42-.44-14.13M340.79 217.75s5.87-.85 8.65.48M340.66 219.74s6.46-.68 9 1.22M341 223s5.76-2.33 8.71.81M321.27 176.29s-2.84 5.8-.07 10.6M321.73 186.64s5.94-2.06 8.8.05c0 0 1.91 9.56 17 10.85 0 0-1.23-8.8-4.64-9.48M326.83 174.58l1.22.49 1.73 2.45c4.32 7.63 16 11.38 16 11.38l.58-1.87c.43-2.74-5.05-9.51-5.05-9.51s-1.46-15.93-1-14.07c.07.32-.2.76-.72 1.28-2.51 2.57-10.73 7-10.73 7a6.77 6.77 0 0 1-2.11 2.3c-4 2.84-11 3.41-11 3.41-10.57 2.53-20.09 14.8-20.09 14.8-9.93 10.78-18.81 4.86-18.81 4.86a12 12 0 0 1 4.57-7.67l1.65-2.48s-.73-4.49 1.93-6.05c0 0 1.37-9.08-.19-11.73l-.36-1-3.95-35.11s-.27-5.14-3.2-6.7-16.88-15.63-19.16-19.78c0 0-4.56-7.38-5.63-7.38 0 0-5.52-4.09-5.52-9s3.09-30.64-1.14-32.75c0 0-5.69-1.3-7.64-4.39a12.47 12.47 0 0 1-1-9.44l.65-1.46s2.4-.87 3.59 2c0 0 7.81 7.67 11.77 5.41 0 0 3.68.28 4 6.23 0 0 .29 20.38 2.55 24.63 0 0-1.13 13.3 9.35 16.42l21.8 17.84 5.37 5.94 3.41 2.3s4.46 8.29 10.45 8c0 0 4.92 2.46 11.06-5.38h3.79l6.15 3.23 4.76 2 2.39 2.22M238.2 53.08s7.17 24.14.39 35.8c0 0-1.9 16.54 7.87 3.26M242.93 59.33s4.61 24.4 1.09 29.55M241.46 44.22s-.55 8.45 8.37 9.29c0 0 6.7 5 5.31 16.18 0 0-2.24 15.07-.84 20.37 0 0 7.26 12.84 20.93 16.75M281.41 189.44s5.69 3.59 8.43-2.38c0 0 10.46-17.19 19.93-21.92 0 0-.5-13.2 10.46-18.43l15.7-15.89M282.56 156.14s8.28-18.89 25.21-7.19M281.87 143.72a11.86 11.86 0 0 1 11.46-4.72s18.68 5.48 21.17 1.49 14.94-5 13.2-11.95M286.11 176.35s8.22-15.19 17.18-20.92M339.92 145.51s-6-1.68-11.17 5.62M338.88 149s-3.59.95-7.94 12.09l-16.06 13.23s-14.93 3.4-16.06 7.75l-7.18 7.18M305.06 173s3.78-4.92 8.88-5.86 13.6 1.13 14.17-13.6l8.5-13.61M300.38 124.2l4.67-1.08s1.79-.72 2-4.49l-3.62-2.36a2.58 2.58 0 0 1 .61-3.74 16.38 16.38 0 0 0 1-6 11.14 11.14 0 0 1 2-4.82l1.45-1.45.69-2.06 1-1.76 3.21-2.9 1.68-.77 1.3-.53s6.57.23 8.51 1.85c0 0 4.75 3 3.67 6.8 0 0-3.35 8-3.13 9.28l-1.29 3.05-1.93 2.78s-.5 1.72.86 1.29l-.79 4.3-1.65 2.23.56 1.79M309.65 98.13s2.63-.12 3.47 1l-5.56 5.87s-2.33 2.15 1.55 2.09M305.28 109.84s4.11-.48 6.29 2.18M306.67 118.52s7.1 5 10.81.9M314.32 100.53s5.4-1.64 8.69 2.11M315.88 102.18s.44 3.19 4.22 1.3M316.31 92.28s1.68-6.87 12.63-2 6.18 12 20.61 15.22c0 0 3.18 6.35 11.58 4l3.49 2.38 2.06 3.49s2.86 3.49.8 5.23a7 7 0 0 1-5.08 1.27l-3 2.38s-14.92 4.75-24.28 1.75-11.42-1.4-12.85-4.43M323.55 92.87a14.3 14.3 0 0 1 11.89 7.77s9.36 17.6 14.11 13.16M327.67 104.6s7 0 13.32 10.47c0 0 3.17 10.47 15.07 3M325.36 110.21s4.06-3.32 3.4-.32-1.84 4.49-3.34 5M325.09 120.55s8-1.67 8.83-6.17M330.09 122.05s3-5 7.83-3c0 0 8 9.82 18.15 3.66M351.24 122.21s4.17 0 11.16-5.16M344.41 115.22s8.16 5.33 16.33-2.83M284.53 330.1s-22 50 2.71 74.51M321 332.58s19.65 25.75 4.41 65.05"/></svg>