<svg xmlns="http://www.w3.org/2000/svg" viewBox="0 0 600 500"><defs><style>.cls-1{fill:#40484f;}.cls-2{fill:none;stroke:#41484f;stroke-miterlimit:10;stroke-width:4px;}</style></defs><title>cities-icon</title><path class="cls-1" d="M231.55 318.4h-29.76v41.67h29.76zm-6 35.72h-17.81v-29.76h17.86zm142.85 5.95h29.76v-41.67h-29.71zm5.95-35.71h17.86v29.76h-17.81zM529.17 330.67v-35.67h-11.91v-19.81a11.93 11.93 0 0 0 3.22-9.88c-1.31-8.21-11.08-14.41-15.12-16.67v-13.09h-6v13.21c-8.69 4.64-13.69 10-14.76 15.95a14 14 0 0 0 2.86 10.6v19.76h-77.34v-11.9h-11.91v-20.36a11.9 11.9 0 0 0 3.22-9.88c-1.31-8.22-11.07-14.41-15.12-16.67v-13.09h-5.95v13.21c-8.69 4.64-13.69 10-14.76 16a13.93 13.93 0 0 0 2.85 10.6v19.76h-7.74l-11.9-11.9h-10.12v-54.1h11.91v-41.67h-7.15a30.56 30.56 0 0 0 9.88-23.81c-1.78-27.74-42-53.33-50.35-58.33v-12.62h-6v13.33c-37.38 23.81-55.59 44.88-54 63.1a27.49 27.49 0 0 0 10.83 18.81h-4.41v41.66h11.91v53.58h-10.12l-11.9 11.9h-7.74v-19.88a11.89 11.89 0 0 0 3.21-9.88c-1.31-8.22-11.07-14.41-15.12-16.67v-13.09h-5.95v13.21c-8.69 4.64-13.69 10-14.76 16a13.89 13.89 0 0 0 2.86 10.6v19.76h-11.91v11.86h-77.38v-19.89a11.87 11.87 0 0 0 3.21-9.88c-1.31-8.21-11.07-14.4-15.11-16.66v-13.1h-6v13.22c-8.69 4.64-13.69 10-14.76 16a13.92 13.92 0 0 0 2.86 10.59v19.72h-11.87v113.09h142.86v11.91h172.62v-11.91h142.86zm-26.79-77.38c4.05 2.26 11.91 7.38 11.91 12.5a6.21 6.21 0 0 1-1.79 5h-20.6a7.61 7.61 0 0 1-1.3-5.72c.71-3.93 4.76-7.97 11.78-11.78zm-8.93 23.81h17.74v17.9h-17.74zm-5.95 23.8h35.71v30.1h-6v-10.81a53.84 53.84 0 0 0-12.81-13.09l-2-1.43-1.78 1.43a53.84 53.84 0 0 0-12.86 13.09v10.36h-6.07v-10.36a54 54 0 0 0-12.86-13.09l-2.14-1.43-1.79 1.43a54 54 0 0 0-12.9 13.09v10.24h-6v-10.24a54 54 0 0 0-12.9-13.09l-2.1-1.43-1.78 1.43a54 54 0 0 0-12.86 13.09v10.12h-6.07v-29.76zm35.71 66.31h-6v-11.31a54 54 0 0 0-12.86-13.09l-2-1.43-1.78 1.43a54 54 0 0 0-12.86 13.09v10.84h-6.07v-10.84a54.2 54.2 0 0 0-12.86-13.09l-2.14-1.43-1.79 1.43a54.2 54.2 0 0 0-12.85 13.09v10.84h-6v-10.84a54.16 54.16 0 0 0-12.85-13.09l-2.15-1.43-1.78 1.43a54.2 54.2 0 0 0-12.86 13.09v10.84h-6.07v-30.48h113.04zm-11.9 0h-17.86v-9a51.35 51.35 0 0 1 8.93-8.81 51 51 0 0 1 8.93 8.81zm-35.71 0h-17.86v-9a51 51 0 0 1 8.93-8.81 51.7 51.7 0 0 1 8.93 8.81zm-35.72 0h-17.88v-9a51.7 51.7 0 0 1 8.93-8.81 51 51 0 0 1 8.93 8.81zm0-36.42h-17.88v-8.22a51.7 51.7 0 0 1 8.93-8.81 51 51 0 0 1 8.93 8.81zm35.72 0h-17.86v-8.34a51 51 0 0 1 8.93-8.81 51.7 51.7 0 0 1 8.93 8.81zm35.71 0h-17.86v-8.46a51.35 51.35 0 0 1 8.93-8.81 51 51 0 0 1 8.93 8.81zm-128-89.41c4.05 2.26 11.91 7.38 11.91 12.5a6.2 6.2 0 0 1-1.79 5h-20.57a7.58 7.58 0 0 1-1.31-5.71c.71-3.93 4.76-7.98 11.78-11.79zm-8.93 23.81h17.86v17.86h-17.84zm-125.47-109c-1-10.95 7.14-29.64 51.07-57.5 8.1 4.88 45.83 29.17 47.62 53.46a27.59 27.59 0 0 1-12.74 23.8h-70a26.54 26.54 0 0 1-15.95-19.76zm6.43 55.12v-29.81h89.28v29.76zm11.9 6h65.48v17.29h-65.46zm0 23.81h65.48v30.24h-65.46zm-13.69 35.72h92.86l17.86 17.86h-128.56zm114.88 125h-136.88v-5.95h136.9zm-107.12-12.01h-5.95v-65.47h5.95zm47.62 0h-17.86v-65.47h17.86zm35.71 0h-5.95v-65.47h5.95zm6 0v-71.43h-17.9v71.43h-17.86v-71.43h-29.76v71.43h-17.86v-71.43h-17.86v71.43h-6v-89.28h113.1v89.28zm-133.97-148.45c4 2.26 11.9 7.38 11.9 12.5a6.19 6.19 0 0 1-1.78 5h-20.6a7.63 7.63 0 0 1-1.31-5.71c.72-3.93 4.76-8 11.79-11.79zm-8.93 23.81h17.86v17.86h-17.86zm-29.74 100.71h-17.88v-7.85a51 51 0 0 1 8.93-9.05 51.7 51.7 0 0 1 8.93 8.81zm5.71-9.64a54.2 54.2 0 0 0-12.86-13.09l-1.78-1.79-1.79 1.43a54.2 54.2 0 0 0-12.88 13.09v9.77h-6.19v-9.77a54 54 0 0 0-12.85-13.09l-2-1.43-1.78 1.43a54.2 54.2 0 0 0-12.86 13.09v9.89h-6.22v-9.89a54.2 54.2 0 0 0-12.86-13.09l-2-1.43-1.79 1.43a54 54 0 0 0-12.85 13.09v10h-6.21v-29.76h113.09v29.53h-5.95v-8.57zm-41.45 9.74h-17.86v-8a51 51 0 0 1 8.93-9.05 51 51 0 0 1 8.93 8.81zm-35.71 0h-17.86v-8.21a51 51 0 0 1 8.93-8.79 51.35 51.35 0 0 1 8.93 8.81zm0-35.71h-17.86v-8.19a51 51 0 0 1 8.93-8.81 51 51 0 0 1 8.93 8.81zm35.71 0h-17.86v-8.1a51.28 51.28 0 0 1 8.93-8.92 50.66 50.66 0 0 1 8.93 8.81zm35.72 0h-17.86v-8a51.28 51.28 0 0 1 8.93-9 51.35 51.35 0 0 1 8.95 8.81zm-80.36-77c4 2.26 11.9 7.38 11.9 12.5a6.2 6.2 0 0 1-1.78 5h-20.6a7.69 7.69 0 0 1-1.43-5.72c.84-3.93 4.89-7.97 11.91-11.78zm-8.93 23.81h17.86v17.9h-17.86zm-6 23.8h107.19v29.53h-5.95v-10.24a54 54 0 0 0-12.86-13.09l-2-1.43-1.79 1.43a54 54 0 0 0-12.86 13.09v9.88h-6.19v-9.88a53.8 53.8 0 0 0-12.85-13.09l-2-1.43-1.78 1.43a54 54 0 0 0-12.86 13.09v10h-6.24v-10a53.35 53.35 0 0 0-12.74-13.09l-2.14-1.31-1.79 1.42a53.84 53.84 0 0 0-12.83 13.1v10h-6.21v-29.76zm6 101.2v-8.22a51 51 0 0 1 8.93-9.17 51.35 51.35 0 0 1 8.93 8.81v8.22zm35.71 0v-8.22a51.69 51.69 0 0 1 8.93-9.17 51 51 0 0 1 8.93 8.81v8.22zm35.72 0v-8.22a51 51 0 0 1 8.93-9.17 51.7 51.7 0 0 1 8.93 8.81v8.22zm23.81 0v-10.48a54.06 54.06 0 0 0-12.86-13.1l-2-1.42-1.79 1.42a54.06 54.06 0 0 0-12.86 13.1v10.12h-6.19v-10.12a53.84 53.84 0 0 0-12.85-13.1l-2-1.42-1.78 1.42a54.06 54.06 0 0 0-12.86 13.1v10.12h-6.24v-10.12a54.06 54.06 0 0 0-12.86-13.1l-2-1.42-1.79 1.42a53.84 53.84 0 0 0-12.85 13.1v10.12h-6.21v-29.74h113.09v30.23zm11.9-113.1h37.5l-11.9 11.9h16.07v89.29h-11.9v11.91h-29.77zm184.53 125h-160.72v-5.95h160.72zm-6-11.9v-11.91h-11.86v-89.29h16.07l-11.9-11.9h37.5v113.1zm47.62 0v-8.22a51.7 51.7 0 0 1 8.93-8.81 51 51 0 0 1 8.93 8.81v8.22zm35.72 0v-8.22a51 51 0 0 1 8.93-8.81 51.7 51.7 0 0 1 8.93 8.81v8.22zm35.71 0v-8.22a51.35 51.35 0 0 1 8.93-8.81 51 51 0 0 1 8.93 8.81v8.22zm23.81 0v-10.48a53.88 53.88 0 0 0-12.86-13.1l-2-1.42-1.78 1.42a53.88 53.88 0 0 0-12.86 13.1v10.12h-6.07v-10.12a54.06 54.06 0 0 0-12.86-13.1l-2.14-1.42-1.79 1.42a54.06 54.06 0 0 0-12.86 13.1v10.12h-6v-10.12a54 54 0 0 0-12.85-13.1l-2.15-1.42-1.78 1.42a54.06 54.06 0 0 0-12.86 13.1v10.12h-6.07v-28.93h113.04v28.93z"/><path class="cls-2" d="M253.22 195.21h93.44"/></svg>