<svg xmlns="http://www.w3.org/2000/svg" viewBox="0 0 600 500"><defs><style>.cls-1{fill:#40484f;}.cls-2{fill:none;stroke:#41484f;stroke-miterlimit:10;stroke-width:4px;}</style></defs><title>cities-icon</title><path class="cls-1" d="M439.93 437.55v-17.86h8.93v-5.95h-8.93v-226.19h-23.81v-35.72h-11.91v-47.62h-23.81v-23.81h-24.4c-3.1-13.57-26.43-23.8-55.95-23.8s-52.86 10.23-56 23.8h-24.36v23.81h-23.81v47.62h-11.88v35.72h-23.83v226.19h-8.93v5.95h8.93v17.86h-20.84v5.95h321.43v-5.95zm-139.88-375c26.78 0 46.19 8.93 50 17.85h-100c3.57-8.92 23-17.85 49.76-17.85zm-74.41 23.81h148.81v17.85h-148.81zm-23.81 23.81h196.43v41.66h-196.43zm-11.9 47.62h220.24v29.76h-220.24zm-6 279.76h-17.81v-17.86h17.88zm47.62 0h-41.62v-17.86h41.67zm0-23.81h-41.62v-65.48h41.67zm0-71.43h-41.62v-17.86h41.67zm0-23.81h-41.62v-8.69a9.25 9.25 0 0 1 9.17-9.17h23.33a9.18 9.18 0 0 1 9.17 9.17zm23.8 119.05h-17.8v-17.86h17.85zm83.34-23.81h-8.93v5.95h8.93v17.86h-77.33v-17.86h8.93v-5.95h-8.93v-110.12a38.69 38.69 0 1 1 77.38 0zm23.81 23.81h-17.81v-17.86h17.86zm47.62 0h-41.62v-17.86h41.67zm0-23.81h-41.62v-65.48h41.67zm0-71.43h-41.62v-17.86h41.67zm0-23.81h-41.62v-8.69a9.25 9.25 0 0 1 9.17-9.17h23.33a9.18 9.18 0 0 1 9.17 9.17zm23.88 119.05h-17.88v-17.86h17.88zm0-23.81h-17.88v-65.48h8.93v-5.95h-8.93v-17.86h8.93v-5.95h-8.93v-8.69a15.15 15.15 0 0 0-15.12-15.12h-23.33a15.14 15.14 0 0 0-15.12 15.12v8.69h-8.93v5.95h8.93v17.86h-8.93v5.95h8.93v65.48h-17.86v-110.12a44.65 44.65 0 0 0-89.29 0v110.12h-17.85v-65.48h8.93v-5.95h-8.93v-17.86h8.93v-5.95h-8.93v-8.69a15.15 15.15 0 0 0-15.12-15.12h-23.33a15.14 15.14 0 0 0-15.1 15.12v8.69h-8.93v5.95h8.93v17.86h-8.93v5.95h8.93v65.48h-17.88v-172.62h267.88zm0-178.57h-267.88v-29.77h267.88zm0-35.72h-267.88v-5.95h267.88zM210.76 276.83a14.88 14.88 0 1 0-14.88-14.83 14.88 14.88 0 0 0 14.88 14.83zm0-23.81a8.93 8.93 0 1 1-8.93 8.93 9.08 9.08 0 0 1 8.93-8.95zm178.57 23.81a14.88 14.88 0 1 0-14.88-14.83 14.88 14.88 0 0 0 14.88 14.83zm0-23.81a8.93 8.93 0 1 1-8.93 8.98 9.07 9.07 0 0 1 8.93-9zm-145.83-107.14h113.1v-29.76h-113.1zm5.95-23.81h101.19v17.86h-101.19z"/><ellipse class="cls-2" cx="230.05" cy="131.25" rx="7.29" ry="7.54"/><ellipse class="cls-2" cx="370.05" cy="131.25" rx="7.29" ry="7.54"/></svg>