<svg xmlns="http://www.w3.org/2000/svg" viewBox="0 0 600 500"><defs><style>.cls-1{fill:none;stroke:#41484f;stroke-miterlimit:10;stroke-width:4px;}</style></defs><title>cities-icon</title><path class="cls-1" d="M324.48 428.44l-71.86-4.3 88.44-280.07 78.62-12.28zM250.27 424.21l-152.12-5.64 124.05-239.57 108.35-3.81zM99.21 418.64h-28.39v-87.62h72.2M145.01 329.4h-44.24v-68.51h79.04M219.12 177.4h-92.09v82.83h51.18"/><path class="cls-1" d="M334.58 162.83l-159.89.17v14l155.62-1.12q2.15-6.52 4.27-13.05zM312.27 426l-47.08-2.58 87.75-281.17 51.46-6.86zM419.43 131l-78 11.42q10.43-35.25 20.87-70.51l76-9.85q-9.42 34.47-18.87 68.94zM491.59 177.12l-71.34-46.27q9.31-34.38 18.64-68.77l66.83 55.27zM496.74 361l-81.94-11-1.29-191.6 71 46.45q6.09 78.15 12.23 156.15zM345.13 366.2l69.67-16.13M173.61 274.77l123.6-1.36M181.22 260.87l123.6-1.37M135.1 348.43l139.23-1.25M142.35 334.37l137.73-1.2M216.84 189.64l110.7-1.24M484.48 204.92l7.11-27.8"/><path class="cls-1" d="M421.61 429.74h-11.71l-6.42-76.4 11.32-2.11zM449.06 429.75h-11.71l-6.35-76.01 10.94.52q3.53 37.74 7.12 75.49zM476 430l-11.71.06q-3.09-37-6.2-73.94l11 1.39q3.46 36.24 6.91 72.49zM502.71 429.89l-11.71.11-5.79-69.55 11.47 1.26zM324.48 428.44l85.42 1.33M421.61 429.74l81.1.15M413.79 178.41l80.21 159.65M439.24 176.87l49.36 94.86M413.02 237.79l56.07 119.72"/><g id="DLF"><path d="M356.89 159.51l.18-1.12.53-3.17.57-3.42c0-.1.08-.09.14-.09h3c.36 0 .73 0 1.09.05a3.42 3.42 0 0 1 1.2.37 2.27 2.27 0 0 1 1.19 1.78 5.75 5.75 0 0 1-.82 3.71 3.61 3.61 0 0 1-1.86 1.58 5 5 0 0 1-1.79.31h-3.39zm2.69-1.81h.63a1.92 1.92 0 0 0 1.89-1.33 4.45 4.45 0 0 0 .27-1.73.93.93 0 0 0-.86-1 10 10 0 0 0-1.1-.09c-.11 0-.14 0-.16.14l-.45 2.7-.22 1.31zM374.15 155h2.61c0 .16-.05.31-.07.46l-.21 1.26c0 .09-.05.11-.14.11h-2.34c-.12 0-.15 0-.17.14-.13.83-.27 1.65-.41 2.48v.11h-2.42l1.3-7.79h5.7l-.3 1.81h-3.13c-.12 0-.17 0-.18.15-.09.38-.17.79-.24 1.27zM370.34 159.51h-5.68l1.3-7.79h2.39l-1 6h3.28z"/></g><g id="Sign"><path d="M386.94 155.9l2.05 3.61h-4.09zM378.29 155.9l2 3.61h-4.09zM380.57 151.87l2.05-3.6 2.05 3.6zM382.39 155.63h-3.95l2-3.47zM382.85 155.63l2-3.47 2 3.47zM380.66 159.51l2-3.47 2 3.47zM384.51 152.17l-1.89 3.33-1.89-3.33zM380.5 159.25l-1.89-3.34h3.78zM386.63 155.92l-1.89 3.32-1.89-3.32z"/></g><path class="cls-1" d="M397.24 67.17l-18.18 68.03M353.25 102.36l75.07-7.04 70.04 54.52M455.3 74.79l-18.18 67.45M474.07 91.8l-16.42 61.58M489.9 103.53l-14.66 61.75"/></svg>