<svg xmlns="http://www.w3.org/2000/svg" viewBox="0 0 600 500"><defs><style>.cls-1,.cls-2{fill:none;stroke-miterlimit:10;stroke-width:3px;}.cls-1{stroke:#41484f;}.cls-2{stroke:#42484f;}</style></defs><title>cities-icon</title><path class="cls-1" d="M283.88 268.56h33.31v41.3h-33.31z"/><rect class="cls-1" x="251.03" y="209.56" width="93.95" height="5.69" rx="2.6"/><path class="cls-1" d="M273.33 231.57h52.19v79.24h-52.19zM301.28 243.78l-14.42 13.2 27.43-.2-13.01-13zM257.56 207.75l2-89.87s1.47-14.73 10.31-17.19l50.59-1.47s11.78 0 12.76 14.73l5.41 93.8"/><path class="cls-2" d="M304.08 133.36h-11.44l1.53-7.06c.49-2.28 2.16-3.86 4.08-3.86h.13a4.4 4.4 0 0 1 4 3.7c.62 2.41 1.14 4.86 1.7 7.22zM304 153.5h-11.46c.51-2.75 1-5.5 1.52-8.24s2.17-4.53 4.08-4.53h.13c1.86 0 3.49 1.77 4 4.33zM325.14 199.21l-55 .46q2.55-39.54 5.12-79.09a14.06 14.06 0 0 1 14.07-14.06h19.38a12.2 12.2 0 0 1 12.29 12.19q2 40.29 4.14 80.5zM334.92 127.48l7.92 12.57s-6.52 2.33-7.92 1.4M336.81 150.46l7.92 12.54s-6.52 2.33-7.92 1.4M258.54 127.62l-7.92 12.57s6.52 2.33 7.92 1.4M256.64 150.6l-7.91 12.57s6.52 2.33 7.91 1.4"/><ellipse class="cls-2" cx="299.04" cy="178.87" rx="8.04" ry="8.41"/><ellipse class="cls-2" cx="299.21" cy="178.96" rx="14.21" ry="13.77"/><path class="cls-2" d="M231.71 370.95h136.32v56.76h-136.32z"/><path class="cls-1" d="M354.41 378.72h7v42.38h-7zM352.16 372.2h11.46v3.29a2.34 2.34 0 0 1-2.34 2.34h-7a2.07 2.07 0 0 1-2.07-2.07v-3.56h-.05zM351.61 420.83h12.61v6.03h-12.61zM243.04 378.56h7v42.38h-7zM240.78 372h11.46v3.29a2.34 2.34 0 0 1-2.34 2.34h-7a2.07 2.07 0 0 1-2.07-2.07v-3.56h-.05zM240.24 420.67h12.61v6.03h-12.61zM329.84 381.48h-63.09l5-5.55h52.08zM278.84 387.56h7v35.16h-7zM276.58 382.16h11.42v2.33a2.34 2.34 0 0 1-2.34 2.34h-7a2.07 2.07 0 0 1-2.07-2.07v-2.6h-.01zM276.03 422.5h12.61v5h-12.61zM314.23 386.81h7v35.16h-7zM312 381.4h11.46v2.33a2.34 2.34 0 0 1-2.34 2.34h-7a2.07 2.07 0 0 1-2.12-2.07v-2.6zM311.43 421.75h12.61v5h-12.61zM274.27 370.75h46.33v4.31h-46.33zM299.82 325.87a21.52 21.52 0 0 1 19 11.18h23.48v-121.58h-88.61v121.58h27.16a21.49 21.49 0 0 1 18.97-11.18zM280.85 337.94l-.19.32M280.66 337.06h-49v32.75h135.93v-32.75h-48.59l-.19-.34"/><path class="cls-1" d="M277.35 93.49l.11 5.54 40.39-.42-.11-5.33a130.24 130.24 0 0 0-40.39.21zM276.18 93.62s-7.56-3.19-2.59-10.35l9.55-10.55 27.67.2 10.19 9.75s7.31 7.48-2.11 10.61"/><path class="cls-1" d="M293.39 63.17l-10.25 9.55 27.67.2-8.55-9.72-8.87-.03z"/><ellipse class="cls-1" cx="297.99" cy="56.19" rx="6.37" ry="6.55"/><ellipse class="cls-1" cx="299.73" cy="347.67" rx="18.74" ry="18.51"/><ellipse class="cls-1" cx="299.46" cy="347.08" rx="12.05" ry="11.82"/><path class="cls-1" d="M297.84 41.56l.15 7.91"/><path class="cls-1" d="M291.4 276.01h18.89v33.06h-18.89zM405.15 288.26h23.32v28.92h-23.32z"/><rect class="cls-1" x="382.16" y="246.96" width="65.77" height="3.99" rx="1.82"/><path class="cls-1" d="M397.77 262.37h36.54v55.48h-36.54zM417.34 270.91l-10.1 9.25 19.2-.15-9.1-9.1zM386.72 245.69l1.38-62.92s1-10.32 7.22-12l35.41-1s8.25 0 8.94 10.32l3.78 65.67"/><path class="cls-2" d="M419.3 193.6h-8l1.06-4.93a3.14 3.14 0 0 1 2.86-2.71h.09a3.06 3.06 0 0 1 2.8 2.59zM419.23 207.71h-8l1.06-5.78s1.52-3.16 2.86-3.16h.09c1.3 0 2.44 1.23 2.8 3zM434 239.71l-38.48.32 3.58-55.37a9.85 9.85 0 0 1 9.85-9.85h13.57a8.54 8.54 0 0 1 8.54 8.54zM440.89 189.49l5.54 8.8s-4.57 1.63-5.54 1M442.21 205.58l5.54 8.8s-4.56 1.63-5.54 1M387.41 189.58l-5.54 8.81s4.56 1.63 5.54 1M386.08 205.67l-5.54 8.81s4.57 1.63 5.54 1"/><ellipse class="cls-2" cx="415.77" cy="225.47" rx="5.63" ry="5.89"/><ellipse class="cls-2" cx="415.88" cy="225.53" rx="9.95" ry="9.64"/><path class="cls-1" d="M438.96 337.22h7.07v-86.13h-62.01v86.13h4.62M403 337.52l-.13.23"/><path class="cls-1" d="M400.58 165.69l.08 3.88 28.27-.29-.07-3.74a91.35 91.35 0 0 0-28.28.15zM399.76 165.78s-5.29-2.23-1.81-7.25l6.69-7.38 19.36.14 7.11 6.83s5.11 5.23-1.48 7.42"/><path class="cls-1" d="M411.81 144.46l-7.17 6.69 19.36.14-5.98-6.81-6.21-.02z"/><ellipse class="cls-1" cx="415.03" cy="139.57" rx="4.46" ry="4.59"/><path class="cls-1" d="M414.92 129.33l.11 5.54"/><path class="cls-1" d="M410.41 293.48h13.23v23.15h-13.23zM443.35 383.19h-58.3l4.58-5.13h48.13zM394.03 388.81h6.46v32.49h-6.46zM391.95 383.81h10.59v2a2.34 2.34 0 0 1-2.34 2.34h-6.2a2.07 2.07 0 0 1-2.07-2.07v-2.25l.02-.02zM391.44 421.09h11.65v4.62h-11.65zM428.93 388.11h6.46v32.49h-6.46zM426.84 383.11h10.59v2a2.34 2.34 0 0 1-2.34 2.34h-6.18a2.07 2.07 0 0 1-2.07-2.07v-2.27zM426.34 420.4h11.65v4.62h-11.65zM392 373.27h42.81v3.98h-42.81zM445.1 337.22h4.48v34.83h-69.03v-34.83h4.41"/><path class="cls-1" d="M406.55 351.13h16.71a10.05 10.05 0 0 1 10.05 10.05v11h-36.51v-11.3a9.75 9.75 0 0 1 9.75-9.75zM407.09 349v2.24l16.32-.17-.01-2.07a52.42 52.42 0 0 0-16.31 0zM406.62 349.1a2.6 2.6 0 0 1-1.05-4.18l3.86-4.27 11.17.09 4.1 3.93s2.95 3-.85 4.29"/><path class="cls-1" d="M413.57 336.8l-4.14 3.85 11.17.09-3.45-3.93-3.58-.01z"/><ellipse class="cls-1" cx="415.43" cy="333.98" rx="2.57" ry="2.65"/><path class="cls-1" d="M415.36 328.07l.07 3.19"/><path class="cls-1" d="M173.12 288.26h23.32v28.92h-23.32z"/><rect class="cls-1" x="150.12" y="246.96" width="65.77" height="3.99" rx="1.82"/><path class="cls-1" d="M165.74 262.37h36.54v55.48h-36.54zM185.31 270.91l-10.1 9.25 19.2-.15-9.1-9.1zM154.69 245.69l1.38-62.92s1-10.32 7.22-12l35.41-1s8.25 0 8.94 10.32l3.78 65.67"/><path class="cls-2" d="M187.27 193.6h-8l1.06-4.93a3.14 3.14 0 0 1 2.86-2.71h.09a3.06 3.06 0 0 1 2.8 2.59zM187.19 207.71h-8l1.07-5.78s1.52-3.16 2.86-3.16h.09c1.3 0 2.44 1.23 2.8 3q.59 2.99 1.18 5.94zM202 239.71l-38.48.32 3.58-55.37a9.85 9.85 0 0 1 9.85-9.85h13.57a8.54 8.54 0 0 1 8.54 8.54zM208.86 189.49l5.54 8.8s-4.57 1.63-5.54 1M210.18 205.58l5.54 8.8s-4.56 1.63-5.54 1M155.38 189.58l-5.55 8.81s4.57 1.63 5.55 1M154.05 205.67l-5.54 8.81s4.56 1.63 5.54 1"/><ellipse class="cls-2" cx="183.74" cy="225.47" rx="5.63" ry="5.89"/><ellipse class="cls-2" cx="183.85" cy="225.53" rx="9.95" ry="9.64"/><path class="cls-1" d="M206.93 337.22h7.07v-86.13h-62.01v86.13h4.62M171 337.52l-.13.23"/><path class="cls-1" d="M168.55 165.69l.08 3.88 28.27-.29-.07-3.74a91.35 91.35 0 0 0-28.28.15zM167.73 165.78s-5.3-2.23-1.81-7.25l6.69-7.38 19.36.14 7.11 6.83s5.11 5.23-1.48 7.42"/><path class="cls-1" d="M179.78 144.46l-7.17 6.69 19.36.14-5.98-6.81-6.21-.02z"/><ellipse class="cls-1" cx="183" cy="139.57" rx="4.46" ry="4.59"/><path class="cls-1" d="M182.89 129.33l.11 5.54"/><path class="cls-1" d="M178.38 293.48h13.23v23.15h-13.23zM211.32 383.19h-58.32l4.58-5.13h48.13zM162 388.81h6.46v32.49h-6.46zM159.91 383.81h10.59v2a2.34 2.34 0 0 1-2.34 2.34h-6.16a2.07 2.07 0 0 1-2.07-2.07v-2.25l-.02-.02zM159.41 421.09h11.65v4.62h-11.65zM196.9 388.11h6.46v32.49h-6.46zM194.81 383.11h10.59v2a2.34 2.34 0 0 1-2.34 2.34h-6.18a2.07 2.07 0 0 1-2.07-2.07v-2.27zM194.31 420.4h11.65v4.62h-11.65zM159.97 373.27h42.81v3.98h-42.81zM213.07 337.22h4.48v34.83h-69.03v-34.83h4.41"/><path class="cls-1" d="M174.52 351.13h16.71a10.05 10.05 0 0 1 10.05 10.05v11h-36.51v-11.3a9.75 9.75 0 0 1 9.75-9.75zM175.06 349v2.24l16.32-.17v-2.15a52.42 52.42 0 0 0-16.32.08zM174.59 349.1a2.6 2.6 0 0 1-1.05-4.18l3.86-4.27 11.17.09 4.1 3.93s3 3-.85 4.29"/><path class="cls-1" d="M181.54 336.8l-4.14 3.85 11.17.09-3.45-3.93-3.58-.01z"/><ellipse class="cls-1" cx="183.4" cy="333.98" rx="2.57" ry="2.65"/><path class="cls-1" d="M183.33 328.07l.06 3.19"/><path class="cls-1" d="M124.3 428.68h351.32v23.59h-351.32zM419.88 337.08h40.76v91.45h-323.12v-91.45h41.11M318.57 337.08h93.12M188.18 337.08h93.01"/></svg>