<svg xmlns="http://www.w3.org/2000/svg" viewBox="0 0 600 500" enable-background="new 0 0 600 500"><style type="text/css">.st0{fill:none;stroke:#41484F;stroke-width:5;stroke-miterlimit:10;} .st1{fill:#41484F;}</style><title>cities-icon</title><path class="st0" d="M62.6 434.3l38-1-43.9-231.4-27.3 16.1 33.2 216.3zM84.9 292.6l37.3 139.7M121.9 344.1l39.5 89M92.3 277.3l29.6 66.8M78.3 308.2c28.2-72.1 74.8-119.3 127.7-119.3 30.8 0 59.6 16.1 83.8 43.8m24.2-7.9c-29.6-42.4-67.2-67.7-108-67.7-54.3 0-102.8 44.8-134.6 114.9M180.8 192.6c53.2 22.3 96 91.3 113.3 180.7m-230.9-134c19.7-26.6 43.1-44.1 68.4-49.5m62.1-31.4c-12.5-5.3-26-8.1-39.6-8.2-35.5 0-68.5 19.1-96 51.9m254.3 132c-14-55.8-36.8-102.8-65.3-135.4M289.7 267.5c12.7-6.9 26.9-10.6 41.3-10.7 11.7 0 23.3 2.5 34.1 7.2m10.7-25.7c-13.8-7.3-29.2-11.1-44.8-11.2-18 0-35.4 5.3-51.6 15M464.4 207.3c26 13.1 49 38.8 66.9 73.2m-176.8-50.4c16-15.9 33.9-26.6 53-30.7m38.2-29.2c-6.8-1.6-13.8-2.4-20.7-2.4-36.9 0-71 22.2-98.2 59.5m209.5 20c-10.3-17.4-21.8-32.4-34.3-44.6M452 213c12.3-7 26.3-10.7 40.4-10.8 17.6 0 34.4 5.9 49.9 16.7m-181.4 157c13.4-77.7 47.7-139 91.1-162.9m-44.5-13.6c-29 30.7-52.3 77.1-66.1 132.8m204.8-154.6c-17.6-11.8-36.7-18.2-56.6-18.2-30 0-58 14.6-82.1 40"/><path class="st0" d="M506.5 427.6l43.9 1.6 25.7-238.6-28.6-12.6-41 249.6zM62 434.5l490-5.1M521.8 263.9l-38.9 164.9M513.8 256.8l-58.2 174.9"/><path class="st1" d="M383.7 409.7c-.4-2.3-1.6-4.4-3.3-5.9.5-2.1.3-4.3-.5-6.2-.9-1.7-2.5-2.8-4.4-3.2 1.7-2.3 2.4-5.2 2.1-8.1-.4-4.5-4.6-6.1-7.3-7.2-4.6-1.7-9.5-2.6-14.4-2.8.9-1.2 1.6-2.5 2.1-3.8.8-2.9.1-9.2-.5-14.3-.1-1.3-.3-2.5-.4-3.5-.4-4.2-1.5-11.8-4.7-15.6-2.3-2.7-5.9-3.8-8.3-4.4l-1.1-.3-7-2.3v-1.1c0-.1 0-.1.2-.4l.3-.6.1.1c.8.5 1.8.7 2.7.5 2.4-.6 2.6-3.5 2.7-5.9 0-.6.1-1.3.2-1.9.3-1.4.9-2.7 1.8-3.8 1-1.5 2.2-3.5.4-5.6-.7-.9-1.8-1.3-3-1.2 0-1.2-.3-2.4-.7-3.5-.6-1.7-1.7-3.3-3.1-4.4-.4-.3-.7-.6-1-1-.8-1-1.7-2-2.7-2.8.3-1.5.1-3-.5-4.3-1.5-4.1-4-9.2-4.1-9.4-.4-.7-1.4-1-2.1-.5-.2.1-.4.3-.5.5-.1.2-2.6 5.3-4.1 9.4-.6 1.4-.7 2.9-.5 4.3-1 .8-1.9 1.8-2.7 2.8-.3.4-.6.7-1 1-1.4 1.2-2.5 2.7-3.1 4.4-.4 1.1-.7 2.3-.7 3.5-1.1-.1-2.2.4-2.9 1.2-1.8 2.1-.6 4 .4 5.6.8 1.2 1.4 2.5 1.8 3.8.1.6.2 1.3.2 1.9.1 2.4.3 5.4 2.7 5.9.9.2 1.9.1 2.7-.5l.1-.1c.1.3.2.5.3.6s.2.3.2.4v1.1l-7 2.2-1.1.3c-2.4.7-6 1.7-8.3 4.4-3.2 3.8-4.4 11.4-4.7 15.6-.1 1-.2 2.2-.4 3.5-.6 5.1-1.3 11.4-.5 14.3.5 1.4 1.2 2.7 2.1 3.8-4.9.2-9.8 1.1-14.4 2.8-2.7 1.1-6.9 2.7-7.3 7.2-.3 2.9.5 5.7 2.1 8.1-1.9.3-3.5 1.5-4.4 3.2-.8 2-1 4.2-.5 6.2-1.8 1.5-2.9 3.6-3.3 5.9-.7 3.4-1.5 13.3 3.3 15.2 9.4 3.6 32 3.5 47 3.4h18.799999999999997c14.1 0 31.2-.4 39-3.4 4.6-1.8 3.8-11.8 3.2-15.1zm-14-27.6c3 1.2 5.2 2.3 5.5 4.8.3 3-.9 5.9-3.1 7.8-.3.2-.4.5-.5.8-2.1.3-7.8 1.1-17 1.7-7.3.5-16.6.6-16.7.6-8.9.1-32.8 0-36.5-2 .2-.6.6-1 1.1-1.3 1.1-.3 2.2-.2 3.2.3.2.1.4.1.6.1 2.3-.6 4.6-1 6.9-1.2 3.7-.4 7.7-.6 11.5-.8 4.8-.2 9.2-.4 12.8-1 6.8-1 25.5-7.8 26.3-8.1.4-.1.6-.6.5-1-.1-.4-.6-.6-.9-.5h-.1l-4 1.4c0-.5-.2-.9-.4-1.3-.5-.7-1.3-1.1-2.1-1.2-1 .1-1.9.2-2.8.4-1.1.2-2.3.5-3.1.6-1.1.1-2.3-.1-3.3-.7l-.7-.3c1.9-.6 3.9-1.4 5.7-2.3.3.2.6.3.9.3-.3.3 8.9.1 16.2 2.9zm-26.2-44.9c2.2.6 5.2 1.5 6.9 3.5 2 2.3 3.5 7.5 4.1 14 .1 1 .2 2.3.4 3.7.5 4.4 1.2 11 .6 13.3-.3 1.2-2.3 3.8-3.5 5.1-.2.2-.3.5-.3.8-2.9 1.4-5.8 2.5-8.9 3.3-4.5 1.3-9 2.3-13.7 3.1-2.3.4-6.7 1-9.9.2-.8-.2-1.5-.8-1.7-1.6-.1-.4-.1-.9.1-1.4.3-.2.6-.1 1.6.2 1.2.5 2.4.8 3.6.9 1.6.2 6.1-.6 6.6-.7.3-.1.6-.3.6-.6s-.1-.6-.4-.8c-.7-.4-1.4-.8-2-1.1l1 .2c1.4.3 2.9.4 4.3.3 2.7-.4 5.4-1 8-2 .1 0 .2-.1.3-.2 2.2-2.8 5.9-7.5 6.5-9 .9-1.4 4.3-1.7 5.6-1.7.4 0 .8-.3.8-.7 0-.4-.3-.8-.7-.8h-.2c-2 0-3.9.4-5.6 1.3-.3-1.3-.8-3-1.6-5.6-1.1-3.5-2.5-7.9-2.6-10l.2-.3c1.8-3.1 2.2-9 2.2-9.3 0-.4-.3-.8-.7-.8-.4 0-.8.3-.8.7 0 .1-.3 5.8-2 8.6-.5.9-1 1.6-1.4 2.2-1.7 2.7-2.8 4.4-2.8 9.4.1 3.9.8 7.7 2.1 11.4-1 1.1-2.2 2-3.6 2.5-.3-5.1-1.1-28.8 4.8-38.8l.8.2c.4.3.8.4 1.3.5zm-3.8 24.5c0-4.5.8-5.9 2.5-8.5.7 2.8 1.4 5.6 2.4 8.4.8 2.6 1.9 5.9 1.8 6.5-1.2 2-2.6 3.9-4.1 5.8-1.5-4-2.4-8.1-2.6-12.2zm.4-25.5c-6.1 11-5 35.6-4.8 39.9-.6.2-1.2.3-1.8.4l.3-.4c.2-.4.3-.9.1-1.4-.4-1-1.6-1.1-3.3-.9-.1-5.6-.1-29.4 5.2-38.9l4.3 1.3zm-26.2 17c1.7 2.6 2.5 4 2.5 8.5-.1 3.9-.9 7.7-2.3 11.3-1.9-1.2-3.5-2.9-4.4-4.9-.1-.7.9-3.9 1.8-6.5.9-2.9 1.9-6.1 2.4-8.4zm4 8.5c0-1.3-.1-2.7-.3-4 1.2-.1 5.3-.9 7.6-3.6 1.4-1.8 2.4-3.9 2.9-6.2.6-1.9 1.3-3.8 2.2-5.7.7-1.5 1.6-2.9 2.5-4.2-3.9 11.5-3.8 31.2-3.7 35.9-.8.1-1.6.3-2.6.5-2.3.5-4.9 1-6.4.8-1.6-.2-3.2-.7-4.6-1.4 1.4-3.8 2.3-8 2.4-12.1zm2.7-44.3c-.4-2.3-1.2-6.1 1.9-8.4 2-1.5 5.1.3 5.1.4.2.1.5.1.8 0 0 0 3.2-1.8 5.1-.4 3.1 2.3 2.4 6.1 1.9 8.5-.3 1.7-1 8-1 8.2 0 .2-.1.7-.2 1.2-1.5 1-4.2 2.6-6 2.6-2 0-5.3-2.1-6.5-3-.1-.4-.1-.6-.1-.8 0-.2-.7-6.4-1-8.3zm2 11.5c1.6 1 4 2.2 5.8 2.2 1.8-.2 3.5-.8 5.1-1.8-.2.4-.3.9-.3 1.4v2.2l.1.3c-.6.4-2 .9-4.8.9-4 0-5.1-1-5.2-1.3v-2.1c-.2-.7-.4-1.3-.7-1.8zm2.8-32.4c.8-2.1 1.8-4.5 2.6-6.3.8 1.8 1.9 4.2 2.6 6.3l.4 2.7c-1 .6-2.1.8-3.2.8-1 .1-1.9-.1-2.8-.6.1 0-.4-.8.4-2.9zm-6.8 28.7c-.1.6-.4 1.2-.9 1.7-.1.1-.2.1-.3.1-.4-.4-.5-2.3-.5-3.3 0-.8-.1-1.6-.2-2.4-.4-1.7-1.2-3.4-2.2-4.9-1-1.6-1-1.7-.6-2l1.6.2c.7.4 1.7.2 2.1-.5.2-.3.3-.8.2-1.1-.3-1.4-.1-2.9.4-4.2.4-1.3 1.3-2.4 2.3-3.3.5-.4 1-.9 1.4-1.5.9-1.1 1.9-2.1 3.1-3 .1-.1.3-.2.4-.4.9.3 1.8.4 2.7.4 1 0 2-.2 3-.5.1.2.2.3.4.5 1.1.9 2.2 1.9 3.1 3 .4.5.9 1 1.4 1.5 1.1.9 1.9 2 2.3 3.3.5 1.3.6 2.8.4 4.2-.2.6.1 1.2.6 1.6.5.4 1.2.4 1.7.1 0 0 1.2-.6 1.6-.2s.4.4-.7 2c-1 1.5-1.8 3.1-2.2 4.9-.1.8-.2 1.6-.2 2.4 0 1.1-.1 2.2-.4 3.2h-.4c-.5-.4-.8-1-.9-1.6-.1-.7-.7-1.2-1.3-1.2.2-2 .6-5.4.9-6.7.5-2.5 1.3-7.1-2.5-9.9-2.3-1.7-5.4-.5-6.4.1-1.1-.5-4.1-1.8-6.4-.1-3.9 2.8-3 7.4-2.5 10 .2 1.2.6 4.5.8 6.5-1.1-.2-1.7.3-1.8 1.1zm-37.6 62c.2-2.5 2.5-3.6 5.5-4.8 7.2-2.9 16.4-2.7 16.5-2.7.6 0 1.1-.3 1.4-.9.3-.5.2-1.2-.2-1.6-1.2-1.4-3.1-4-3.5-5.1-.7-2.4.1-9 .6-13.3.1-1.4.3-2.6.4-3.7.6-6.5 2.1-11.7 4.1-14 1.8-2 4.8-2.9 7-3.5.4-.1.8-.2 1.2-.4 2-.6 8.1-2.6 8.1-2.6s.2-.1.3-.2c.8.7 2.5 1.5 6.1 1.5 1.7.1 3.3-.2 4.9-.7-1.6 2.1-3 4.4-4.2 6.7-.9 1.9-1.7 3.9-2.3 5.9-.5 2-1.4 4-2.6 5.6-2.1 2.5-6.3 3-6.9 3.1-.5-1.4-1.2-2.7-2-3.9-.4-.7-.9-1.4-1.4-2.2-1.7-2.8-2-8.6-2-8.6 0-.4-.3-.8-.8-.8h-.1c-.4 0-.7.4-.7.8 0 .2.4 6.1 2.2 9.3l.2.3c-.1 2.1-1.5 6.4-2.6 10-.8 2.6-1.4 4.4-1.6 5.6-1.7-.9-3.7-1.4-5.6-1.3-.4 0-.8.3-.8.7 0 .4.3.8.7.8h.2c1.2 0 4.6.3 5.5 1.7.5 1.8 4 7.1 11.5 8.1 1.7.2 4.3-.3 6.9-.8 1.9-.4 5.2-1.1 5.7-.5-.7.7-1.6 1.1-2.5 1.3-.4.1-.6.5-.5.9.1.3.3.5.6.6h1.1c3.6.1 7.1-1.2 9.8-3.7.1.2.1.4.2.4 0 .1.1.2.2.2l-1.1 1.4c-2.4.9-4.9 1.5-7.4 1.9-1.3.1-2.6 0-3.9-.3-1.1-.3-2.2-.4-3.3-.3-.4 0-.7.3-.8.7-.1.4-.1.9 2.2 2.3-1.3.2-2.7.3-4 .3-1.1-.1-2.2-.4-3.3-.9-1.1-.4-2.1-.8-3.1 0-.7.7-1 1.8-.7 2.7l.3.9c-2.4-.3-6.1-.8-7.7-1-5.6-.8-12.7-1.5-12.8-1.5-.4-.1-.8.2-.8.6v.1c0 .4.3.8.7.8.1 0 7.2.7 12.7 1.5 2.5.4 9.9 1.3 9.9 1.3l.5.2c1.4.3 2.8.5 4.3.5 2.1 0 4.2-.2 6.3-.6 4.6-.8 9.2-1.8 13.8-3.1 1.2-.2 2.4 0 3.5.6 1.2.7 2.7 1 4.1.8 1-.1 2.2-.4 3.3-.6.8-.2 1.6-.4 2.4-.4.4 0 .8.2 1 .5.2.3.2.7.2 1-6.2 2.2-16.1 5.5-20.5 6.1-3.5.5-8 .7-12.7 1-3.9.2-7.9.4-11.6.8-2.3.2-4.6.6-6.8 1.2-1.3-.6-2.8-.7-4.1-.3-1.1.4-1.9 1.4-2.1 2.6v.2c-5.1.2-10.3 0-15.4-.6l-.3-.6c-2.6-2.2-3.8-5.1-3.4-8zm-2.6 11.7c.6-1.5 3.6-1.9 4.6-1.9.5 0 .9-.3 1.1-.6 3.8.5 7.7.8 11.6.8 1.8 0 3.5-.1 5.1-.2 4.1 1.8 23.3 2 32.3 2h4.6c.1 0 9.5-.2 16.8-.6 9.8-.6 15.5-1.4 17.4-1.7.3.3.6.4 1 .4h.1c1.3 0 4 .4 4.7 1.8.6 1.6.7 3.4.2 5.1-40.2 4.5-78.6 3.3-99.6.1-.6-1.8-.6-3.6.1-5.2zm101.5 23.9c-8.9 3.4-32.4 3.3-46.4 3.2h-10.9c-14 .1-37.5.2-46.4-3.2-1.9-.7-2.4-7.2-1.5-11.9.3-1.8 1.3-3.5 2.8-4.6.2-.1.3-.2.5-.4 11.4 1.7 27.7 2.9 46.7 2.9 17.8 0 35.7-1 53.4-2.9.1.2.3.3.5.5 1.5 1.1 2.6 2.7 2.8 4.6.9 4.6.4 11-1.5 11.8z"/></svg>